<svg width="80" height="75" xmlns="http://www.w3.org/2000/svg">
 <!-- Created with Method Draw - http://github.com/duopixel/Method-Draw/ -->

 <g>
  <title>background</title>
  <rect fill="#fff" id="canvas_background" height="77" width="82" y="-1" x="-1"/>
  <g display="none" overflow="visible" y="0" x="0" height="100%" width="100%" id="canvasGrid">
   <rect fill="url(#gridpattern)" stroke-width="0" y="0" x="0" height="100%" width="100%"/>
  </g>
 </g>
 <g>
  <title>Layer 1</title>
  <g stroke="null" id="svg_27">
   <g stroke="null" transform="matrix(0.14984906519019245,0,0,0.14984906519019245,-3.62880560185323,-3.097478439840927) " id="svg_5">
    <g stroke="null" id="svg_6">
     <g stroke="null" id="svg_7">
      <path fill="#c11111" stroke="null" id="svg_8" d="m477.612338,218.707764c-9.864,-5.743 -20.426,-10.194 -31.426,-13.241c2.841,-11.074 4.265,-22.465 4.237,-33.898c0,-76.27 -60.91,-139.034 -139.388,-147.156l-0.088,0.353c55.191,8.557 95.896,56.083 95.868,111.934c0.081,19.89 -5.194,39.436 -15.272,56.585c-1.492,2.714 -3.143,5.337 -4.943,7.857c-4.914,7.159 -10.663,13.709 -17.126,19.509c-43.069,39.077 -108.766,39.077 -151.834,0c-6.462,-5.8 -12.211,-12.349 -17.126,-19.509c-1.801,-2.519 -3.452,-5.143 -4.943,-7.857c-10.077,-17.149 -15.353,-36.694 -15.272,-56.585c-0.029,-55.851 40.676,-103.377 95.868,-111.934l0,-0.353c-78.478,8.033 -139.476,70.885 -139.476,147.155c-0.028,11.433 1.396,22.823 4.237,33.898c-10.977,3.033 -21.512,7.484 -31.338,13.241c-67.178,38.754 -90.836,125.176 -56.144,197.915l0.177,-0.088c-12.951,-30.296 -12.087,-64.727 2.37,-94.335c14.456,-29.608 41.075,-51.464 72.929,-59.883c9.573,-2.462 19.423,-3.679 29.308,-3.619c3.09,0 5.914,0.177 8.916,0.441c8.764,0.682 17.417,2.4 25.777,5.12c26.523,8.632 48.912,26.776 62.852,50.935c0.024,0 0.046,0.009 0.063,0.025s0.026,0.039 0.025,0.063l0,0.088c13.788,23.753 18.375,51.742 12.888,78.654c-1.826,9.053 -4.73,17.856 -8.651,26.218c-1.059,2.207 -2.207,4.502 -3.354,6.709c-17.964,32.314 -50.557,53.838 -87.33,57.67c-36.773,3.832 -73.104,-10.51 -97.344,-38.426l-0.353,0.353c46.698,61.175 129.766,81.214 194.648,43.785c9.9,-5.673 19.037,-12.585 27.189,-20.568c8.169,7.963 17.303,14.873 27.189,20.568c64.971,37.429 148.127,17.39 194.737,-43.961l-0.353,-0.265c-24.197,27.981 -60.535,42.378 -97.33,38.561c-36.794,-3.817 -69.405,-25.366 -87.343,-57.717c-1.236,-2.207 -2.383,-4.502 -3.443,-6.709c-3.921,-8.362 -6.825,-17.164 -8.651,-26.218c-5.442,-26.912 -0.859,-54.886 12.888,-78.654l0,-0.088c0,-0.024 0.009,-0.046 0.025,-0.063s0.039,-0.026 0.063,-0.025c13.94,-24.159 36.33,-42.303 62.852,-50.935c8.359,-2.72 17.012,-4.438 25.776,-5.12c3.001,-0.265 5.914,-0.441 8.916,-0.441c38.136,-0.223 73.816,18.789 94.901,50.567c21.085,31.778 24.734,72.042 9.706,107.094l0.265,0.088c34.517,-72.74 11.036,-158.985 -56.142,-197.738z"/>
      <path fill="#c11111" stroke="null" id="svg_9" d="m335.311338,388.285764c0.075,0.742 0.193,1.479 0.353,2.207c1.516,7.717 3.977,15.218 7.327,22.334c0.883,1.677 1.854,3.619 2.825,5.473c0.507,0.943 1.067,1.857 1.677,2.737c51.803,-21.683 85.503,-72.372 85.451,-128.53c0.034,-5.371 -0.29,-10.738 -0.971,-16.066c-0.851,-0.074 -1.706,-0.103 -2.56,-0.088c-3.001,0 -5.385,0.177 -7.857,0.353c-7.444,0.562 -14.794,2.014 -21.892,4.326c-0.722,0.275 -1.459,0.511 -2.207,0.706c0.428,3.574 0.635,7.17 0.618,10.77c0.018,41.574 -24.637,79.198 -62.764,95.778z"/>
      <path fill="#c11111" stroke="null" id="svg_10" d="m210.754338,184.279764c1.232,2.27 2.618,4.453 4.149,6.533c4.144,6.118 9.005,11.719 14.477,16.684c0.53,0.441 0.971,0.883 1.501,1.324c37.096,-27.895 88.168,-27.895 125.263,0c0.511,-0.364 0.984,-0.778 1.412,-1.236c5.482,-4.89 10.344,-10.434 14.477,-16.508c1.477,-2.007 2.833,-4.099 4.061,-6.268c0.618,-1.148 1.324,-2.207 1.854,-3.354l0,0c-49.879,-37.899 -118.905,-37.899 -168.783,0c0.53,0.971 1.059,1.854 1.589,2.825z"/>
      <path fill="#c11111" stroke="null" id="svg_11" d="m187.449338,281.029764c-7.042,-2.294 -14.332,-3.746 -21.716,-4.326c-2.648,-0.177 -4.943,-0.353 -7.503,-0.353l-0.971,0c-0.707,-0.015 -1.415,0.015 -2.119,0.088c-0.681,5.328 -1.005,10.695 -0.971,16.066c-0.052,56.184 33.691,106.886 85.539,128.53c0.617,-0.883 1.059,-1.766 1.589,-2.648c0.883,-1.589 1.942,-3.708 2.913,-5.826c3.293,-6.976 5.724,-14.328 7.239,-21.892c0.177,-0.794 0.265,-1.589 0.441,-2.383c-38.164,-16.55 -62.858,-54.181 -62.852,-95.779c-0.017,-3.57 0.19,-7.137 0.618,-10.681c-0.706,-0.266 -1.501,-0.531 -2.207,-0.796z"/>
     </g>
    </g>
   </g>
   <g stroke="null" transform="matrix(0.14984906519019245,0,0,0.14984906519019245,-3.62880560185323,-3.097478439840927) " id="svg_12"/>
   <g stroke="null" transform="matrix(0.14984906519019245,0,0,0.14984906519019245,-3.62880560185323,-3.097478439840927) " id="svg_13"/>
   <g stroke="null" transform="matrix(0.14984906519019245,0,0,0.14984906519019245,-3.62880560185323,-3.097478439840927) " id="svg_14"/>
   <g stroke="null" transform="matrix(0.14984906519019245,0,0,0.14984906519019245,-3.62880560185323,-3.097478439840927) " id="svg_15"/>
   <g stroke="null" transform="matrix(0.14984906519019245,0,0,0.14984906519019245,-3.62880560185323,-3.097478439840927) " id="svg_16"/>
   <g stroke="null" transform="matrix(0.14984906519019245,0,0,0.14984906519019245,-3.62880560185323,-3.097478439840927) " id="svg_17"/>
   <g stroke="null" transform="matrix(0.14984906519019245,0,0,0.14984906519019245,-3.62880560185323,-3.097478439840927) " id="svg_18"/>
   <g stroke="null" transform="matrix(0.14984906519019245,0,0,0.14984906519019245,-3.62880560185323,-3.097478439840927) " id="svg_19"/>
   <g stroke="null" transform="matrix(0.14984906519019245,0,0,0.14984906519019245,-3.62880560185323,-3.097478439840927) " id="svg_20"/>
   <g stroke="null" transform="matrix(0.14984906519019245,0,0,0.14984906519019245,-3.62880560185323,-3.097478439840927) " id="svg_21"/>
   <g stroke="null" transform="matrix(0.14984906519019245,0,0,0.14984906519019245,-3.62880560185323,-3.097478439840927) " id="svg_22"/>
   <g stroke="null" transform="matrix(0.14984906519019245,0,0,0.14984906519019245,-3.62880560185323,-3.097478439840927) " id="svg_23"/>
   <g stroke="null" transform="matrix(0.14984906519019245,0,0,0.14984906519019245,-3.62880560185323,-3.097478439840927) " id="svg_24"/>
   <g stroke="null" transform="matrix(0.14984906519019245,0,0,0.14984906519019245,-3.62880560185323,-3.097478439840927) " id="svg_25"/>
   <g stroke="null" transform="matrix(0.14984906519019245,0,0,0.14984906519019245,-3.62880560185323,-3.097478439840927) " id="svg_26"/>
  </g>
 </g>
</svg>