<?xml version="1.0" encoding="UTF-8" standalone="no"?>
<!-- Created with Inkscape (http://www.inkscape.org/) -->

<svg
   width="32.565895mm"
   height="58.737499mm"
   viewBox="0 0 32.565895 58.737499"
   version="1.1"
   id="svg388560"
   inkscape:version="1.1 (c68e22c387, 2021-05-23)"
   sodipodi:docname="christmas-tree.svg"
   xmlns:inkscape="http://www.inkscape.org/namespaces/inkscape"
   xmlns:sodipodi="http://sodipodi.sourceforge.net/DTD/sodipodi-0.dtd"
   xmlns="http://www.w3.org/2000/svg"
   xmlns:svg="http://www.w3.org/2000/svg">
  <sodipodi:namedview
     id="namedview388562"
     pagecolor="#ffffff"
     bordercolor="#666666"
     borderopacity="1.0"
     inkscape:pageshadow="2"
     inkscape:pageopacity="0.0"
     inkscape:pagecheckerboard="0"
     inkscape:document-units="mm"
     showgrid="false"
     fit-margin-top="0"
     fit-margin-left="0"
     fit-margin-right="0"
     fit-margin-bottom="0"
     inkscape:zoom="0.72337262"
     inkscape:cx="-233.62787"
     inkscape:cy="361.50111"
     inkscape:window-width="2382"
     inkscape:window-height="1253"
     inkscape:window-x="2486"
     inkscape:window-y="52"
     inkscape:window-maximized="0"
     inkscape:current-layer="layer1" />
  <defs
     id="defs388557" />
  <g
     inkscape:label="Calque 1"
     inkscape:groupmode="layer"
     id="layer1"
     transform="translate(-166.9646,-52.928049)">
    <path
       style="fill:#054b2e;fill-opacity:1;stroke-width:1"
       d="m 180.66404,107.89524 -0.0734,-3.77032 -2.38125,-0.1689 c -4.1094,-0.29149 -11.24479,-1.93904 -11.24479,-2.59641 0,-0.12582 1.30403,-2.174174 2.89784,-4.551902 1.59382,-2.377729 2.81421,-4.3981 2.71198,-4.489712 -0.10222,-0.09161 -0.81094,-0.369367 -1.57492,-0.617231 -0.76399,-0.247862 -1.38906,-0.509693 -1.38906,-0.581848 0,-0.241702 3.56958,-5.363538 3.74469,-5.3731 0.0951,-0.0052 1.40868,0.81561 2.91917,1.824001 5.82858,3.89111 10.92273,6.111507 16.72256,7.288897 l 2.88122,0.584899 1.95572,2.882932 c 1.79619,2.647764 1.91782,2.910644 1.49109,3.222684 -1.1427,0.83556 -6.96569,2.1384 -10.74722,2.40459 l -2.43078,0.1711 -0.0734,3.77032 -0.0734,3.77031 h -2.6313 -2.63131 z m 12.70001,-7.75407 c 0.68583,-0.480373 0.76901,-1.486022 0.17227,-2.082764 -0.53545,-0.535455 -1.13854,-0.52782 -1.74621,0.02212 -0.60172,0.544552 -0.62043,1.353907 -0.046,1.988684 0.5351,0.59127 0.85803,0.60562 1.61992,0.072 z m -18.3446,-0.726562 c 0.33211,-0.950172 -0.0584,-1.610588 -1.01994,-1.724949 -0.92304,-0.109778 -1.47867,0.361945 -1.47867,1.255369 0,0.94733 0.49073,1.383902 1.44913,1.289222 0.59321,-0.0586 0.85491,-0.262993 1.04948,-0.819642 z m 10.44885,-1.290873 c 0.36181,-0.647528 0.35318,-0.757341 -0.0988,-1.256771 -0.59745,-0.660178 -1.39056,-0.70257 -2.04605,-0.109366 -0.60375,0.546386 -0.6147,1.095653 -0.0346,1.736619 0.62416,0.68969 1.68819,0.508821 2.1795,-0.370482 z m -6.21847,-4.272357 c 0.19258,-0.539139 0.14005,-0.808474 -0.23944,-1.227818 -0.61617,-0.680849 -1.31598,-0.683664 -1.99163,-0.008 -0.68458,0.684577 -0.66694,0.944615 0.11729,1.728843 0.78962,0.78962 1.73433,0.569277 2.11378,-0.493014 z m 13.11476,-0.07468 c -2.88862,-0.626867 -6.50985,-1.939271 -9.39292,-3.404174 -3.1084,-1.579391 -8.86333,-5.276697 -8.86333,-5.69432 0,-0.151847 0.31508,-0.752203 0.70018,-1.334125 0.3851,-0.581922 0.65299,-1.099097 0.59531,-1.149281 -0.0577,-0.05018 -0.72994,-0.295455 -1.49392,-0.545052 -0.76399,-0.249595 -1.38907,-0.569836 -1.38907,-0.711647 0,-0.141809 0.48069,-0.965679 1.06819,-1.830819 0.74803,-1.101513 1.23861,-1.572982 1.63675,-1.572982 1.20842,0 4.13798,-0.889768 6.25709,-1.900404 2.77066,-1.321374 5.27478,-3.723324 6.68968,-6.416729 l 0.96388,-1.834841 1.3495,2.067226 c 0.74222,1.136974 1.3495,2.167686 1.3495,2.290471 0,0.122784 -0.65638,0.414058 -1.45861,0.647274 -0.97213,0.282604 -1.39726,0.527744 -1.27468,0.734995 0.10117,0.171031 1.23972,1.89426 2.53012,3.829398 1.2904,1.935136 2.40907,3.682299 2.48593,3.882583 0.0978,0.254791 -0.30609,0.504685 -1.34481,0.832112 -0.9557,0.301257 -1.43923,0.586063 -1.35732,0.799491 0.07,0.182343 1.30225,2.09413 2.73839,4.248415 1.43615,2.154285 2.69343,4.055838 2.79396,4.225668 0.11972,0.202245 -0.29719,0.465442 -1.20833,0.762834 -1.90592,0.622078 -1.87318,0.58016 -1.24587,1.595165 0.66159,1.070483 0.62994,1.0776 -2.12962,0.478742 z m -2.64583,-5.1299 c 0.29104,-0.291042 0.52917,-0.76054 0.52917,-1.043332 0,-0.529397 -0.91498,-1.337918 -1.51409,-1.337918 -0.46498,0 -1.39633,0.970616 -1.39633,1.455208 0,0.218281 0.23812,0.635 0.52917,0.926042 0.29104,0.291041 0.70776,0.529166 0.92604,0.529166 0.21828,0 0.635,-0.238125 0.92604,-0.529166 z m -8.05395,-5.411005 c 0.52205,-0.796753 0.29527,-1.662615 -0.53449,-2.040678 -1.3176,-0.600337 -2.5598,1.097261 -1.58837,2.170676 0.64837,0.716441 1.6067,0.657757 2.12286,-0.129998 z m 6.58085,-5.524 c 0.19352,-0.541768 0.13947,-0.809127 -0.25078,-1.24034 -0.6842,-0.756035 -1.72169,-0.593354 -2.23653,0.350689 -0.38814,0.711735 -0.37441,0.769869 0.32577,1.379284 0.88503,0.770303 1.78426,0.56661 2.16154,-0.489633 z m -11.6512,-2.986369 1.22115,-1.820302 -0.72916,-0.233324 c -0.40103,-0.128327 -1.12022,-0.392096 -1.5982,-0.586153 l -0.86906,-0.352831 4.24519,-6.359674 c 2.33486,-3.497821 4.12073,-6.359675 3.9686,-6.359675 -0.15212,0 -0.57377,0.194722 -0.937,0.432715 -0.36322,0.237994 -0.70588,0.386822 -0.76148,0.330729 -0.0556,-0.05609 -9.3e-4,-0.637767 0.12146,-1.29261 0.21269,-1.137954 0.18003,-1.234518 -0.73812,-2.182813 l -0.96064,-0.992187 h 0.69793 c 1.20588,0 2.04256,-0.484501 2.50259,-1.449198 0.24445,-0.512629 0.51942,-0.932052 0.61104,-0.932052 0.0916,0 0.36658,0.419423 0.61104,0.932052 0.46003,0.964697 1.29671,1.449198 2.50259,1.449198 h 0.69793 l -0.98165,1.005304 c -0.95192,0.974851 -0.97462,1.042979 -0.74932,2.248959 0.25397,1.359411 0.21509,1.40286 -0.75767,0.846778 -0.36381,-0.207968 -0.74675,-0.382342 -0.85099,-0.387499 -0.10424,-0.0052 0.79862,1.508671 2.00636,3.364062 1.20774,1.855391 2.26683,3.569483 2.35353,3.809093 0.47254,1.305835 -3.12137,6.121995 -5.89786,7.903667 -1.35959,0.872443 -4.14404,1.93733 -5.90825,2.259555 l -1.02116,0.186509 z m 5.98055,-5.128626 c 0.67004,-0.670035 0.67384,-1.37456 0.0107,-1.974727 -1.07438,-0.972301 -2.7638,0.245566 -2.09703,1.511706 0.59139,1.123001 1.27473,1.274653 2.08637,0.463021 z"
       id="path388457" />
  </g>
</svg>
